<?xml version="1.0"?>
<svg version="1.1" xmlns="http://www.w3.org/2000/svg" width="200" height="40" style=""><path fill="#ff1f53" d="M15.80419921875,24.89111328125q0-0.54052734375,0.191162109375-0.90966796875t0.810791015625-0.369140625q0.2373046875,0,0.59326171875,0.072509765625t0.40869140625,0.362548828125q0.1318359375,0.77783203125,0.14501953125,1.6875t0.09228515625,1.7138671875q0.30322265625-0.59326171875,0.77783203125-1.27880859375t1.0810546875-1.265625t1.318359375-0.96240234375t1.4501953125-0.38232421875q0.052734375,0,0.19775390625,0.03955078125t0.270263671875,0.112060546875t0.151611328125,0.164794921875t-0.14501953125,0.17138671875q-0.052734375,0.158203125-0.22412109375,0.191162109375t-0.30322265625,0.032958984375q-0.0791015625,0-0.25048828125-0.06591796875q-0.9755859375,0.51416015625-1.6611328125,1.3974609375t-1.12060546875,1.957763671875t-0.6328125,2.267578125t-0.19775390625,2.326904296875q0,0.56689453125-0.257080078125,0.685546875t-0.823974609375,0.11865234375q-0.30322265625,0-0.639404296875-0.06591796875t-0.468017578125-0.421875q-0.2373046875-0.75146484375-0.388916015625-1.72705078125t-0.230712890625-2.010498046875t-0.112060546875-2.036865234375t-0.032958984375-1.80615234375z M25.173383789063,29.123046875q0-0.9228515625,0.204345703125-2.17529296875t0.692138671875-2.373046875t1.285400390625-1.905029296875t2.010498046875-0.784423828125q1.1337890625,0,1.70068359375,0.652587890625t0.56689453125,1.760009765625q0,0.72509765625-0.270263671875,1.588623046875t-0.771240234375,1.634765625t-1.1865234375,1.285400390625t-1.529296875,0.51416015625l-0.3427734375-0.0263671875q0,0.35595703125,0.10546875,0.955810546875t0.309814453125,1.193115234375t0.52734375,1.04150390625t0.784423828125,0.4482421875q0.67236328125,0,1.2919921875-0.54052734375t1.17333984375-1.19970703125t1.0283203125-1.19970703125t0.8701171875-0.54052734375q0.2109375,0,0.43505859375,0.06591796875t0.25048828125,0.369140625q0,0.1845703125-0.098876953125,0.30322265625t-0.177978515625,0.263671875q-0.40869140625,0.69873046875-0.889892578125,1.33154296875t-1.087646484375,1.14697265625t-1.324951171875,0.810791015625t-1.588623046875,0.296630859375q-1.1337890625,0-1.88525390625-0.402099609375t-1.212890625-1.0810546875t-0.665771484375-1.56884765625t-0.204345703125-1.865478515625z M27.533247070313,28.12109375l0.369140625,0.32958984375q0.263671875,0.2373046875,0.52734375,0.10546875t0.474609375-0.481201171875t0.388916015625-0.863525390625t0.31640625-1.0546875t0.204345703125-1.0546875t0.06591796875-0.85693359375l0-0.4482421875t-0.03955078125-0.474609375t-0.138427734375-0.375732421875t-0.309814453125-0.191162109375q-0.06591796875-0.01318359375-0.11865234375-0.01318359375q-0.4482421875,0-0.7646484375,0.56689453125q-0.3427734375,0.6328125-0.5537109375,1.535888671875t-0.30322265625,1.852294921875t-0.11865234375,1.423828125z M36.203701171875,28.6484375l0-0.38232421875q0-0.474609375,0.0263671875-0.896484375q0.0263671875-0.59326171875,0.0263671875-0.9755859375q0-0.2109375,0.0263671875-0.481201171875t0.1318359375-0.428466796875q0.1318359375-0.1318359375,0.309814453125-0.270263671875t0.388916015625-0.138427734375q0.67236328125,0,1.0546875,0.151611328125t0.40869140625,0.626220703125l0.052734375,0.40869140625q0.2373046875-0.56689453125,0.6328125-1.404052734375t0.916259765625-1.59521484375t1.17333984375-1.2919921875t1.377685546875-0.533935546875q0.67236328125,0,1.107421875,0.6328125t0.692138671875,1.614990234375t0.362548828125,2.1884765625t0.14501953125,2.366455078125t0.052734375,2.115966796875t0.09228515625,1.443603515625q0.052734375,0.40869140625,0.177978515625,0.863525390625t0.125244140625,0.837158203125q0,0.10546875-0.151611328125,0.204345703125t-0.322998046875,0.164794921875t-0.349365234375,0.10546875t-0.257080078125,0.03955078125q-0.51416015625,0-0.731689453125-0.771240234375t-0.270263671875-1.931396484375t-0.052734375-2.511474609375t-0.09228515625-2.511474609375t-0.375732421875-1.931396484375t-0.903076171875-0.797607421875q-0.56689453125,0-1.17333984375,0.731689453125t-1.04150390625,1.944580078125q-0.421875,1.212890625-0.580078125,2.75537109375q-0.052734375,0.48779296875-0.052734375,0.9755859375q0,1.06787109375,0.22412109375,2.1357421875q0.0263671875,0.1845703125-0.151611328125,0.27685546875t-0.441650390625,0.14501953125t-0.533935546875,0.06591796875t-0.415283203125,0.01318359375q-0.51416015625,0-0.823974609375-0.362548828125t-0.481201171875-0.929443359375t-0.230712890625-1.272216796875t-0.072509765625-1.390869140625z M47.642709960938,27.42236328125q0-0.263671875,0.059326171875-0.69873046875t0.138427734375-0.863525390625t0.1845703125-0.797607421875t0.25048828125-0.474609375q0.10546875-0.10546875,0.362548828125-0.2109375t0.54052734375-0.151611328125t0.52734375,0.03955078125t0.296630859375,0.349365234375q-0.1845703125,0.2373046875-0.336181640625,0.810791015625t-0.230712890625,1.272216796875q-0.06591796875,0.59326171875-0.06591796875,1.22607421875l0,0.22412109375q0.01318359375,0.73828125,0.1318359375,1.35791015625t0.362548828125,1.021728515625t0.678955078125,0.402099609375q0.9228515625,0,1.6875-0.850341796875t1.35791015625-2.076416015625t1.04150390625-2.603759765625t0.7646484375-2.406005859375q0.0791015625-0.30322265625,0.375732421875-0.40869140625t0.639404296875-0.072509765625t0.613037109375,0.164794921875t0.322998046875,0.31640625q-0.263671875,2.21484375-0.415283203125,4.4296875t-0.151611328125,4.4560546875q0,0.43505859375,0.03955078125,0.797607421875t-0.03955078125,0.61962890625t-0.349365234375,0.40869140625t-0.863525390625,0.151611328125q-0.1318359375,0-0.336181640625-0.0263671875t-0.421875-0.085693359375t-0.369140625-0.177978515625t-0.151611328125-0.27685546875q0-0.9755859375,0.072509765625-2.00390625t0.204345703125-1.99072265625q-0.35595703125,0.51416015625-0.784423828125,1.021728515625t-0.942626953125,0.916259765625t-1.107421875,0.652587890625t-1.27880859375,0.243896484375q-0.9755859375,0-1.535888671875-0.46142578125t-0.84375-1.153564453125t-0.35595703125-1.509521484375t-0.072509765625-1.58203125z"/><path fill="#" d=""/></svg>
